<?xml version="1.0" standalone="no"?>
<!DOCTYPE svg PUBLIC "-//W3C//DTD SVG 1.1//EN" "http://www.w3.org/Graphics/SVG/1.1/DTD/svg11.dtd" >
<svg xmlns="http://www.w3.org/2000/svg" xmlns:xlink="http://www.w3.org/1999/xlink" version="1.1">
<metadata>
Created by FontForge 20190413 at Mon Feb 10 13:36:21 2020
 By Amin
</metadata>
<defs>
<font id="icomoon" horiz-adv-x="1024" >
  <font-face 
    font-family="icomoon"
    font-weight="400"
    font-stretch="normal"
    units-per-em="1024"
    panose-1="2 0 5 3 0 0 0 0 0 0"
    ascent="960"
    descent="-64"
    bbox="-0.01 -73.144 1296 960.435"
    underline-thickness="0"
    underline-position="0"
    unicode-range="U+0020-EA0B"
  />
<missing-glyph 
 />
    <glyph glyph-name=".notdef" 
 />
    <glyph glyph-name="space" unicode=" " horiz-adv-x="512" 
 />
    <glyph glyph-name="linkedin" unicode="&#xe900;" 
d="M872.405 87.381h-151.637v237.611c0 56.661 -1.152 129.579 -79.019 129.579c-79.061 0 -91.136 -61.653 -91.136 -125.397v-241.792h-151.637v488.619h145.664v-66.603h1.963c20.352 38.4 69.845 78.933 143.787 78.933c153.643 0 182.059 -101.12 182.059 -232.747
v-268.203zM227.712 642.859c-48.811 0 -88.021 39.509 -88.021 88.107c0 48.555 39.253 88.021 88.021 88.021c48.64 0 88.064 -39.467 88.064 -88.021c0 -48.597 -39.467 -88.107 -88.064 -88.107zM303.744 87.381h-152.064v488.619h152.064v-488.619zM948.267 960
h-872.704c-41.771 0 -75.563 -33.024 -75.563 -73.771v-876.459c0 -40.789 33.792 -73.771 75.563 -73.771h872.576c41.728 0 75.861 32.981 75.861 73.771v876.459c0 40.747 -34.133 73.771 -75.861 73.771h0.128z" />
    <glyph glyph-name="a" unicode="&#xe901;" 
d="M1008.19 628.747l-457.556 -457.791c-20.606 -20.606 -54.327 -21.075 -75.167 -0.936c-0.469 0.234 -0.702 0.702 -0.936 0.936l-458.727 458.727c-21.075 21.075 -21.075 55.263 0 76.338l18.968 18.968c21.075 21.075 55.263 21.075 76.338 0l401.357 -401.357
l400.42 400.42c21.075 21.075 55.263 21.075 76.338 0l18.968 -18.968c21.075 -21.075 21.075 -55.497 0 -76.338z" />
    <glyph glyph-name="a_s" unicode="&#xe902;" 
d="M1024 15.645v864.711c0 43.918 -35.953 79.644 -79.644 79.644h-864.711c-43.918 0 -79.644 -35.953 -79.644 -79.644v-864.711c0 -43.918 35.953 -79.644 79.644 -79.644h864.711c43.918 0 79.644 35.727 79.644 79.644zM480.824 210.432
c-0.456 0.228 -0.682 0.682 -0.91 0.682l-392.078 392.306c-17.977 17.977 -17.977 47.331 0 65.309l16.157 16.157c17.977 17.977 47.331 17.977 65.309 0l343.153 -343.153l342.243 342.243c17.977 17.977 47.331 17.977 65.309 0l16.157 -16.157
c17.977 -17.977 17.977 -47.559 0 -65.309l-391.168 -391.396c-17.522 -17.522 -46.421 -17.977 -64.171 -0.682z" />
    <glyph glyph-name="back" unicode="&#xe903;" 
d="M410.739 17.638l-397.052 397.052c-17.765 17.765 -18.21 47.078 -0.889 65.288c0 0.445 0.445 0.445 0.889 0.889l397.941 397.941c18.21 18.21 47.965 18.21 66.175 0l16.434 -16.434c18.21 -18.21 18.21 -47.965 0 -66.175l-348.197 -348.197l347.311 -347.311
c18.21 -18.21 18.21 -47.965 0 -66.175l-16.434 -16.434c-18.654 -18.654 -48.41 -18.654 -66.175 -0.445zM970.785 390.263h-821.64c-29.313 0 -53.296 23.983 -53.296 53.296v8.883c0 29.313 23.983 53.296 53.296 53.296h821.64c29.313 0 53.296 -23.983 53.296 -53.296
v-8.883c0 -29.313 -23.983 -53.296 -53.296 -53.296z" />
    <glyph glyph-name="eye" unicode="&#xe904;" 
d="M512 774.86c-225.69 0 -440.32 -129.844 -512 -307.2c71.68 -176.538 286.31 -307.2 512 -307.2c225.69 0 440.32 129.844 512 307.2c-71.68 176.538 -286.31 307.2 -512 307.2zM512 262.86c-113.05 0 -204.8 91.75 -204.8 204.8s91.75 204.8 204.8 204.8
c113.05 0 204.8 -91.75 204.8 -204.8s-91.34 -204.8 -204.8 -204.8zM614.4 467.66c0 -56.524 -45.876 -102.4 -102.4 -102.4s-102.4 45.876 -102.4 102.4s45.876 102.4 102.4 102.4s102.4 -45.876 102.4 -102.4z" />
    <glyph glyph-name="f" unicode="&#xe905;" 
d="M896.652 685.05c-1.304 53.46 -15.647 67.281 -28.686 80.32c-12.778 12.778 -133.52 130.39 -166.9 166.378c-0.522 0.522 -1.043 1.043 -1.304 1.565c-0.522 0.782 -1.304 1.304 -2.347 1.826c-8.605 8.345 -34.163 25.296 -73.019 25.035
c-31.294 -0.261 -195.586 -1.043 -277.471 -1.043h-1.565c-13.821 0 -25.296 0.782 -33.12 0.782c-3.912 0 -7.823 0.522 -11.474 0.522c-50.07 0 -87.623 -0.522 -97.793 -0.522c-39.117 -0.522 -73.019 -49.287 -74.323 -79.277s-2.608 -818.591 0 -862.924
s50.852 -79.538 79.538 -79.538s576.326 -3.912 607.62 0s82.146 52.156 80.842 84.754s1.304 608.662 0 662.122zM793.643 1.022c-46.941 -1.304 -563.287 0 -578.934 0s-29.468 22.166 -28.164 43.029c1.304 20.863 0.261 785.993 0.261 813.375
c0 27.643 20.081 39.117 33.12 39.117h346.839v-197.932s16.951 -57.633 53.46 -57.633h207.321v-586.496s13.039 -52.156 -33.902 -53.46zM631.959 700.957v206.278l207.321 -206.278h-207.321z" />
    <glyph glyph-name="f_3d" unicode="&#xe906;" 
d="M896.652 685.05c-1.304 53.46 -15.647 67.281 -28.686 80.32c-12.778 12.778 -133.52 130.39 -166.9 166.378c-0.522 0.522 -1.043 1.043 -1.304 1.565c-0.522 0.782 -1.304 1.304 -2.347 1.826c-8.605 8.345 -34.163 25.296 -73.019 25.035
c-31.294 -0.261 -195.586 -1.043 -277.471 -1.043h-1.565c-13.821 0 -25.296 0.782 -33.12 0.782c-3.912 0 -7.823 0.522 -11.474 0.522c-50.07 0 -87.623 -0.522 -97.793 -0.522c-39.117 -0.522 -73.019 -49.287 -74.323 -79.277s-2.608 -818.591 0 -862.924
s50.852 -79.538 79.538 -79.538s576.326 -3.912 607.62 0s82.146 52.156 80.842 84.754s1.304 608.662 0 662.122zM793.643 1.022c-46.941 -1.304 -563.287 0 -578.934 0s-29.468 22.166 -28.164 43.029c1.304 20.863 0.261 785.993 0.261 813.375
c0 27.643 20.081 39.117 33.12 39.117h346.839v-197.932s16.951 -57.633 53.46 -57.633h207.321v-586.496s13.039 -52.156 -33.902 -53.46zM631.959 700.957v206.278l207.321 -206.278h-207.321zM468.449 119.155l-169.508 98.575
c-17.994 11.474 -21.644 30.512 -21.385 46.418l0.261 182.808c0.261 16.169 8.084 19.82 26.078 8.345l165.857 -84.232c17.994 -11.474 32.337 -30.512 32.076 -46.418l-3.912 -204.452c0 -15.647 -11.474 -12.257 -29.468 -1.043zM713.323 454.781l-169.769 -90.751
c-17.994 -11.474 -21.644 -33.902 -21.385 -50.07l-0.261 -182.808c0.261 -16.169 8.084 -27.121 26.078 -15.647l166.118 90.751c17.994 11.474 32.337 30.251 32.076 46.418l-3.13 193.5c-0.261 16.169 -11.735 20.081 -29.729 8.605zM489.052 385.935l-178.113 90.751
c-30.772 12.517 -33.379 27.121 11.474 44.855l150.731 78.234c44.594 17.733 33.902 18.777 64.934 6.258l164.292 -83.711c30.772 -12.517 50.591 -27.121 5.997 -44.855l-143.952 -78.234c-44.855 -17.994 -44.594 -25.817 -75.365 -13.3z" />
    <glyph glyph-name="f_aud" unicode="&#xe907;" 
d="M896.551 684.467c-1.304 53.446 -15.643 67.263 -28.678 80.299c-12.775 12.775 -133.485 130.356 -166.856 166.334c-0.522 0.522 -1.043 1.043 -1.304 1.565c-0.522 0.522 -1.304 1.304 -2.346 1.825c-8.603 8.343 -34.154 25.81 -72.999 25.29
c-31.285 -0.261 -195.534 -0.782 -277.398 -0.782h-1.565c-13.817 0 -25.29 0.522 -33.111 0.522c-3.911 0 -7.821 0.261 -11.471 0.261c-50.057 0 -87.6 -0.522 -97.767 -0.782c-39.107 -0.522 -72.999 -49.274 -74.303 -79.256s-2.607 -818.376 0 -862.697
s50.839 -79.517 79.517 -79.517s576.174 -3.911 607.46 0s82.124 52.142 80.821 84.731s1.304 608.763 0 662.209v-0.002zM793.569 0.618c-46.928 -1.304 -563.138 0 -578.781 0s-29.46 22.161 -28.156 43.018c1.304 20.857 0.261 786.047 0.261 813.422
s20.075 39.107 33.111 39.107h346.747v-198.402s16.946 -57.096 53.446 -57.096h207.266v-586.864c0 0.261 13.036 -51.881 -33.893 -53.185zM631.928 700.891v205.702l207.266 -205.702h-207.266zM464.29 389.862c0 0 -0.782 83.428 0 111.584
c0.782 28.156 -26.853 33.893 -38.585 23.464s-84.21 -74.825 -84.21 -74.825l-52.142 0.522s0 -0.522 -9.125 -0.522s-26.593 -2.607 -26.593 -23.464v-62.571v-83.428s4.433 -28.156 27.375 -28.156h56.053s73.781 -58.399 82.906 -66.221s35.196 -17.728 44.321 4.433
c1.565 3.65 0 199.184 -5.68434e-14 199.184zM399.894 275.408l-49.535 31.807h-41.714v75.607h44.321l46.928 43.799v-151.213zM566.489 218.573c-6.257 -8.864 -18.511 -10.95 -27.375 -4.692s-10.95 18.511 -4.692 27.375c52.403 74.825 45.103 173.896 -11.471 240.116
v0c-5.214 6.257 -6.257 16.424 -1.043 23.986c6.257 8.864 18.511 10.95 27.375 4.953c1.565 -1.043 2.607 -2.085 3.911 -3.389c0.261 -0.261 0.261 -0.261 0.522 -0.522c67.263 -79.517 75.868 -197.099 13.817 -286.523c-0.522 -0.782 -0.782 -1.043 -1.043 -1.304z
M630.885 173.471c-6.257 -8.864 -18.511 -10.95 -27.375 -4.692s-11.471 18.772 -5.214 27.636c73.26 104.546 64.396 241.94 -15.904 335.797v0c-5.214 6.257 -5.996 16.165 -0.782 23.725c6.257 8.864 18.511 10.95 27.375 4.692c1.565 -1.043 2.868 -2.346 3.911 -3.65
c0.261 -0.261 0.261 -0.522 0.522 -0.522c2.607 -3.129 5.214 -6.257 7.821 -9.647c63.875 -81.863 83.167 -190.842 51.1 -289.652c-9.386 -28.678 -22.942 -56.575 -41.192 -82.646c0 -0.522 0 -0.782 -0.261 -1.043zM695.28 128.367
c-6.257 -8.864 -18.511 -10.95 -27.375 -4.692c-8.864 6.258 -10.95 18.511 -4.692 27.375c8.082 11.471 15.382 23.464 21.9 35.457c69.35 128.792 51.1 286.002 -41.453 395.24l-0.261 0.261c-5.475 6.518 -6.257 16.424 -1.043 23.725
c6.257 8.864 18.511 10.95 27.375 4.692c1.565 -1.043 2.607 -2.085 3.911 -3.389l0.522 -0.522c111.845 -132.702 125.403 -329.019 21.118 -478.146z" />
    <glyph glyph-name="f_doc" unicode="&#xe908;" 
d="M896.73 684.837c-1.304 53.471 -15.65 67.295 -28.692 80.336c-12.781 12.781 -133.548 130.417 -166.934 166.412c-0.522 0.522 -1.043 1.043 -1.304 1.565c-0.522 0.522 -1.304 1.304 -2.347 1.826c-8.607 8.347 -34.17 25.04 -73.034 24.518
c-31.3 -0.261 -195.626 -1.304 -277.527 -1.304h-1.565c-13.824 0 -25.301 1.304 -33.126 1.304c-3.913 0 -7.825 0.782 -11.476 0.522c-50.081 0 -87.64 -0.261 -97.813 -0.522c-39.125 -0.522 -73.034 -49.036 -74.338 -79.032s-2.608 -818.758 0 -863.1
s50.863 -79.554 79.554 -79.554s576.443 -3.913 607.743 0s82.163 52.167 80.859 84.771s1.304 608.786 0 662.257zM792.919 0.67c-46.95 -1.304 -563.14 0 -578.79 0s-29.214 22.171 -27.91 43.038c1.304 20.867 0.261 785.892 0.261 813.28
c0 27.388 20.085 38.603 33.126 38.603h345.605v-196.93s18.258 -58.688 54.775 -58.688h206.059v-585.834c0.261 0 13.824 -52.167 -33.126 -53.471v0.002zM630.679 699.705v207.363l208.667 -207.363zM681.02 185.862h-344.823c-19.563 0 -36.778 -10.694 -36.778 -24.779
v-0.522c0 -14.085 17.476 -26.865 36.778 -26.865h344.823c19.563 0 35.735 12.781 35.735 26.865v0.522c0 14.085 -16.172 24.779 -35.735 24.779zM684.932 316.279h-344.823c-19.563 0 -38.082 -10.694 -38.082 -24.779v-0.522c0 -14.085 18.781 -26.865 38.082 -26.865
h344.823c19.563 0 34.431 12.781 34.431 26.865v0.522c0 14.085 -14.868 24.779 -34.431 24.779zM684.932 446.696h-344.823c-19.563 0 -38.082 -10.694 -38.082 -24.779v-0.522c0 -14.085 18.781 -26.865 38.082 -26.865h344.823c19.563 0 34.431 12.781 34.431 26.865
v0.522c0 14.085 -14.868 24.779 -34.431 24.779zM684.932 577.113h-344.823c-19.563 0 -38.082 -10.694 -38.082 -24.779v-0.522c0 -14.085 18.781 -26.865 38.082 -26.865h344.823c19.563 0 34.431 12.781 34.431 26.865v0.522c0 14.085 -14.868 24.779 -34.431 24.779z
" />
    <glyph glyph-name="f_vid" unicode="&#xe909;" 
d="M897.334 685.47c-1.306 53.555 -15.675 67.4 -28.737 80.463c-12.801 12.801 -133.757 130.622 -167.196 166.413c-0.523 0.523 -1.045 1.045 -1.306 1.568c-0.523 0.783 -1.306 1.306 -2.351 1.829c-8.621 8.36 -34.223 24.295 -73.148 23.773
c-31.349 -0.261 -411.982 -1.829 -422.432 -1.829c-39.187 -0.523 -73.148 -46.501 -74.454 -76.544s-2.612 -820.044 0 -864.455c2.612 -44.411 50.943 -79.418 79.679 -79.418s577.349 -3.919 608.698 0s82.292 52.249 80.986 84.904s1.568 609.742 0.261 663.297z
M794.143 0.229c-47.024 -1.306 -564.286 0 -579.961 0s-29.52 22.206 -28.214 43.105c1.306 20.899 0.261 786.343 0.261 813.774c0 27.169 20.116 37.619 33.178 37.619h347.454v-195.671s16.981 -60.348 53.555 -60.348h207.689v-584.924s13.062 -52.249 -33.962 -53.555z
M632.172 698.794v209.256l207.689 -209.256h-207.689zM485.876 319.468l94.831 -57.212l-94.831 -59.825v117.037zM732.751 444.343h-231.984l233.03 47.285l-17.764 80.724l-396.829 -78.112l-0.261 -0.783c-13.324 -7.054 -27.692 -25.341 -28.214 -40.754
l-1.045 -258.631c0 -32.394 26.386 -65.834 59.303 -65.834h327.338c32.917 0 59.041 34.223 55.906 66.879v249.226h0.523zM545.7 423.965h57.997l-35.529 -34.745h-57.997zM665.872 540.742l42.06 -28.998l-56.951 -11.494l-42.06 28.737l56.951 11.756zM555.628 520.365
l42.322 -31.611l-56.951 -12.279l-42.322 31.611zM445.383 496.592l42.322 -28.998l-56.951 -11.494l-42.322 28.998zM490.578 423.965l-35.529 -34.745h-57.997l35.529 34.745h57.997zM691.997 201.908c0 -13.585 -5.225 -30.566 -18.81 -30.566h-319.24
c-13.585 0 -21.683 16.719 -21.683 30.566v140.81h359.993v-140.81zM678.673 389.22h-57.997l35.529 34.745h57.997z" />
    <glyph glyph-name="menu" unicode="&#xe90a;" 
d="M936.36 732.137h-848.721c-47.971 0 -87.64 39.207 -87.64 87.64v1.846c0 47.971 39.207 87.64 87.64 87.64h848.721c47.971 0 87.64 -39.207 87.64 -87.64v-1.846c0 -47.971 -39.207 -87.64 -87.64 -87.64zM936.36 359.438h-848.721
c-47.971 0 -87.64 39.207 -87.64 87.64v1.846c0 47.971 39.207 87.64 87.64 87.64h848.721c47.971 0 87.64 -39.207 87.64 -87.64v-1.846c0 -47.971 -39.207 -87.64 -87.64 -87.64zM936.36 -13.261h-848.721c-47.971 0 -87.64 39.207 -87.64 87.64v1.846
c0 47.971 39.207 87.64 87.64 87.64h848.721c47.971 0 87.64 -39.207 87.64 -87.64v-1.846c0 -48.433 -39.207 -87.64 -87.64 -87.64z" />
    <glyph glyph-name="search" unicode="&#xe90b;" 
d="M732.463 308.872h-46.609l-16.78 20.508c56.863 66.651 91.353 154.276 91.353 248.892c0 210.673 -170.123 381.728 -379.864 381.728s-379.864 -170.123 -379.864 -380.795c0 -210.206 170.123 -380.795 379.864 -380.795c95.548 0 181.309 35.423 247.96 94.15
l13.517 -14.915v-48.939l296.433 -292.705l84.828 84.828l-290.84 288.044zM382.896 310.27c-146.819 0 -265.672 118.853 -265.672 265.672c0 146.819 118.853 265.672 265.672 265.672s265.672 -118.853 265.672 -265.672c0 -146.819 -118.853 -265.672 -265.672 -265.672
z" />
    <glyph glyph-name="tracking" unicode="&#xe90c;" 
d="M511.88 960c-223.954 0 -405.663 -181.709 -405.663 -405.663c0 -68.891 17.522 -137.062 51.128 -197.071c40.566 -72.971 102.256 -133.701 154.584 -198.031c34.805 -42.966 135.621 -159.625 179.548 -211.713c1.681 -1.92 3.12 -3.841 4.801 -5.52
c4.32 -3.601 10.082 -6.001 16.562 -6.001c6.48 0 12.242 2.4 16.562 6.001c1.44 1.92 3.12 3.601 4.56 5.52c61.21 73.211 117.859 146.663 180.509 219.875c49.927 58.569 108.497 115.218 147.623 181.948c36.486 61.929 55.689 133.461 55.689 205.232
c-0.24 223.954 -181.948 405.423 -405.904 405.423h0.001zM614.616 277.574c-31.925 -12.002 -66.73 -18.243 -102.736 -18.243c-34.805 0 -68.411 6.001 -99.616 17.283c-114.018 40.566 -195.631 149.783 -195.631 277.724c0 162.985 132.261 295.246 295.246 295.246
s295.246 -132.261 295.246 -295.246c0 -126.739 -80.172 -234.996 -192.51 -276.763zM471.793 331.101l-156.024 90.734c-16.562 10.561 -19.923 28.085 -19.684 42.726l0.24 168.266c0.24 14.883 7.441 18.243 24.004 7.682l152.664 -77.532
c16.562 -10.561 29.764 -28.085 29.524 -42.726l-3.601 -188.189c0 -14.643 -10.561 -11.521 -27.124 -0.96zM697.189 640.031l-156.265 -83.533c-16.562 -10.561 -19.923 -31.205 -19.684 -46.088l-0.24 -168.266c0.24 -14.883 7.441 -24.964 24.004 -14.402
l152.904 83.533c16.562 10.561 29.764 27.845 29.524 42.726l-2.881 178.108c-0.24 14.883 -10.802 18.243 -27.364 7.921zM490.757 576.661l-163.706 83.533c-28.324 11.521 -30.724 24.964 10.561 41.287l138.741 72.011c41.047 16.322 31.205 17.283 59.769 5.761
l151.224 -77.052c28.324 -11.521 46.567 -24.964 5.52 -41.287l-132.501 -72.011c-41.526 -16.803 -41.287 -24.004 -69.611 -12.242h0.003zM491.237 -52.718c1.681 -1.92 3.12 -3.841 4.801 -5.52c-1.92 1.681 -3.601 3.601 -4.801 5.52zM533.724 -52.718
c-1.2 -2.16 -2.881 -3.841 -4.56 -5.52c1.44 1.92 2.881 3.601 4.56 5.52z" />
    <glyph glyph-name="x" unicode="&#xe90d;" 
d="M797.117 67.833l-665.284 665.284c-15.787 15.787 -15.787 41.306 0 57.093l37.951 37.951c15.787 15.787 41.306 15.787 57.093 0l665.284 -665.284c15.787 -15.787 15.787 -41.306 0 -57.093l-37.951 -37.951c-15.787 -15.787 -41.306 -15.787 -57.093 5.68434e-14z
M892.167 733.117l-665.284 -665.284c-15.787 -15.787 -41.306 -15.787 -57.093 0l-37.951 37.951c-15.787 15.787 -15.787 41.306 0 57.093l665.284 665.284c15.787 15.787 41.306 15.787 57.093 0l37.951 -37.951c15.787 -15.787 15.787 -41.306 0 -57.093z" />
    <glyph glyph-name="x_s" unicode="&#xe90e;" 
d="M959.512 960h-895.023c-25.796 0 -46.901 -21.105 -46.901 -46.901v-930.198c0 -25.796 21.105 -46.901 46.901 -46.901h895.023c25.796 0 46.901 21.105 46.901 46.901v930.198c0 25.796 -21.105 46.901 -46.901 46.901zM871.965 179.103
c18.37 -18.37 18.37 -48.073 0 -66.443l-25.013 -25.013c-18.37 -18.37 -48.073 -18.37 -66.443 0l-268.508 268.897l-268.897 -268.897c-18.37 -18.37 -48.073 -18.37 -66.443 0l-25.013 25.013c-18.37 18.37 -18.37 48.073 0 66.443l268.897 268.897l-268.897 268.897
c-18.37 18.37 -18.37 48.073 0 66.443l25.013 25.013c18.37 18.37 48.073 18.37 66.443 0l268.897 -268.897l268.897 268.897c18.37 18.37 48.073 18.37 66.443 0l25.013 -25.013c18.37 -18.37 18.37 -48.073 0 -66.443l-268.897 -268.897z" />
    <glyph glyph-name="y_best" unicode="&#xe90f;" horiz-adv-x="1296" 
d="M1295.45 612.499c0 0 -163.957 163.678 -168.426 167.59c-15.084 13.965 -27.373 29.327 -47.483 29.327h-478.464s-31.284 27.931 -48.601 44.131s-32.959 22.345 -48.88 23.184s-503.603 -0.28 -503.603 -0.28s403.05 -36.311 426.792 -37.707
s32.122 -2.235 44.131 -11.173s229.875 -215.071 229.875 -215.071s-203.62 -194.124 -213.398 -202.502s-13.965 -18.993 -36.311 -21.787s-451.093 -39.663 -451.093 -39.663s471.482 0 502.765 0.838c31.283 0.838 41.897 14.804 55.303 27.373
s20.389 19.552 20.389 19.552s396.067 -27.931 422.602 -30.166s31.563 -3.631 41.338 -11.173s136.864 -138.262 136.864 -138.262s-122.341 -122.899 -133.513 -132.675s-17.596 -13.407 -30.725 -14.804s-709.458 -50.276 -709.458 -50.276h760.573
s35.753 6.984 45.527 15.363s184.348 182.392 184.348 182.392l-199.151 197.475l198.593 198.314h0.006zM1044.62 477.869c-6.145 -6.425 -17.596 -11.731 -34.076 -13.128s-382.1 -26.814 -382.1 -26.814l191.33 174.571l-191.33 174.571s364.504 -24.58 381.264 -25.138
s30.166 -7.821 41.06 -19.552c10.613 -11.731 129.322 -129.881 129.322 -129.881s-129.601 -127.926 -135.468 -134.63z" />
    <glyph glyph-name="square-o" unicode="&#xe910;" 
d="M771.325 797.922h-518.65c-54.858 0 -99.74 -44.884 -99.74 -99.74v-518.65c0 -54.858 44.884 -99.74 99.74 -99.74h518.65c54.858 0 99.74 44.884 99.74 99.74v518.65c0 54.858 -44.884 99.74 -99.74 99.74zM950.857 698.183v-518.65
c0 -99.116 -80.416 -179.532 -179.532 -179.532h-518.65c-99.116 0 -179.532 80.416 -179.532 179.532v518.65c0 99.116 80.416 179.532 179.532 179.532h518.65c99.116 0 179.532 -80.416 179.532 -179.532z" />
    <glyph glyph-name="check-square-o" unicode="&#xe911;" 
d="M866.982 378.512v-195.81c0 -97.905 -79.432 -177.337 -177.337 -177.337h-512.308c-97.905 0 -177.337 79.432 -177.337 177.337v512.308c0 97.905 79.432 177.337 177.337 177.337h512.308c24.63 0 49.26 -4.926 72.043 -15.394
c5.542 -2.463 9.852 -8.005 11.084 -14.163c1.232 -6.774 -0.615 -12.931 -5.542 -17.856l-30.172 -30.172c-3.695 -3.695 -9.236 -6.157 -14.163 -6.157c-1.847 0 -3.695 0.615 -5.542 1.232c-9.236 2.463 -18.473 3.695 -27.709 3.695h-512.308
c-54.187 0 -98.521 -44.335 -98.521 -98.521v-512.308c0 -54.187 44.335 -98.521 98.521 -98.521h512.308c54.187 0 98.521 44.335 98.521 98.521v156.402c0 4.926 1.847 9.852 5.542 13.546l39.408 39.408c4.31 4.31 9.236 6.157 14.163 6.157
c2.463 0 4.926 -0.615 7.389 -1.847c7.389 -3.079 12.316 -9.852 12.316 -17.856zM1009.22 679.617l-501.225 -501.225c-19.704 -19.704 -50.492 -19.704 -70.196 0l-264.774 264.774c-19.704 19.704 -19.704 50.492 0 70.196l67.733 67.733
c19.704 19.704 50.492 19.704 70.196 0l161.944 -161.944l398.393 398.393c19.704 19.704 50.492 19.704 70.196 0l67.733 -67.733c19.704 -19.704 19.704 -50.492 0 -70.196v0.002z" />
    <glyph glyph-name="shopping-cart" unicode="&#xe912;" 
d="M2.43164 -64l71.9795 262.955c-44.416 76.9707 -67.7549 164.224 -67.7129 253.695c0.128906 279.723 227.755 507.35 507.436 507.35c135.723 -0.0429688 263.125 -52.9062 358.954 -148.821c95.7871 -95.915 148.522 -223.402 148.48 -358.997
c-0.12793 -279.766 -227.755 -507.393 -507.435 -507.393c-84.9072 0.0429688 -168.576 21.334 -242.688 61.7812zM283.904 98.4316c71.5088 -42.4531 139.775 -67.8818 230.059 -67.9248c232.448 0 421.803 189.184 421.931 421.76
c0.0849609 233.045 -188.374 421.974 -421.59 422.059c-232.618 0 -421.845 -189.184 -421.931 -421.717c-0.0419922 -94.9336 27.7764 -166.017 74.4961 -240.385l-42.624 -155.647zM769.749 331.562c3.2002 -5.29004 3.2002 -30.6768 -7.38086 -60.3301
c-10.5811 -29.6113 -61.2266 -56.6621 -85.5898 -60.2881c-21.8447 -3.24316 -49.4932 -4.6084 -79.8721 5.03418c-18.3887 5.8457 -42.0264 13.6533 -72.2773 26.71c-127.188 54.9111 -210.218 182.997 -216.575 191.445
c-6.31543 8.44727 -51.7549 68.7354 -51.7549 131.157c0 62.4209 32.7676 93.0557 44.373 105.771s25.3438 15.8721 33.792 15.8721l24.3203 -0.426758c7.76562 -0.383789 18.2188 2.94336 28.5439 -21.7598c10.5381 -25.3867 35.8828 -87.8086 39.083 -94.123
c3.19922 -6.35742 5.29004 -13.7812 1.06641 -22.2295c-4.2666 -8.49023 -6.35742 -13.7812 -12.7998 -21.1201c-6.35742 -7.42383 -13.3125 -16.5547 -19.0293 -22.2295c-6.31543 -6.31445 -12.9287 -13.1836 -5.54688 -25.8555
c7.38086 -12.7148 32.8535 -54.2295 70.5273 -87.8506c48.4268 -43.2217 89.3018 -56.5762 101.974 -62.9336s20.0957 -5.29102 27.4775 3.15723c7.38086 8.44824 31.7012 37.0352 40.1494 49.707c8.49023 12.7148 16.9385 10.5811 28.5439 6.35742
c11.6475 -4.22461 73.9844 -34.9014 86.6562 -41.2588c12.7139 -6.35742 21.1621 -9.51465 24.3193 -14.8057z" />
    <glyph glyph-name="shopping-basket" unicode="&#xe913;" 
d="M960 502.858c35.5 0 64 -28.5 64 -64s-28.5 -64 -64 -64h-7.5l-57.5 -331c-5.5 -30.5 -32 -53 -63 -53h-640.001c-31 0 -57.5 22.5 -63 53l-57.5 331h-7.5c-35.5 0 -64 28.5 -64 64s28.5 64 64 64h896.001zM242.5 102.858c17.5 1.5 31 17 29.5 34.5l-16 208
c-1.5 17.5 -17 31 -34.5 29.5s-31 -17 -29.5 -34.5l16 -208c1.5 -16.5 15.5 -29.5 32 -29.5h2.5zM448 134.857v208c0 17.5 -14.5 32 -32 32s-32 -14.5 -32 -32v-208c0 -17.5 14.5 -32 32 -32s32 14.5 32 32zM640 134.857v208c0 17.5 -14.5 32 -32 32s-32 -14.5 -32 -32v-208
c0 -17.5 14.5 -32 32 -32s32 14.5 32 32zM816 132.357l16 208c1.5 17.5 -12 33 -29.5 34.5s-33 -12 -34.5 -29.5l-16 -208c-1.5 -17.5 12 -33 29.5 -34.5h2.5c16.5 0 30.5 13 32 29.5zM238 740.858l-46.5 -206h-66l50.5 220.5c13 58.5 64.5 99.5 124.5 99.5h83.5
c0 17.5 14.5 32 32 32h192c17.5 0 32 -14.5 32 -32h83.5c60 0 111.5 -41 124.5 -99.5l50.5 -220.5h-66l-46.5 206c-7 29.5 -32.5 50 -62.5 50h-83.5c0 -17.5 -14.5 -32 -32 -32h-192c-17.5 0 -32 14.5 -32 32h-83.5c-30 0 -55.5 -20.5 -62.5 -50z" />
    <glyph glyph-name="phone-square" unicode="&#xe914;" 
d="M853.333 240.856c0 3.333 0 7.334 -1.334 10.667c-4.001 12 -101.333 61.333 -120 72c-12.667 7.334 -28 22 -43.334 22c-29.334 0 -72.667 -87.333 -98.666 -87.333c-13.334 0 -30 12 -42 18.667c-88.001 49.334 -148.667 110 -198 198
c-6.666 12 -18.667 28.666 -18.667 42c0 26 87.333 69.334 87.333 98.666c0 15.334 -14.666 30.667 -22 43.334c-10.667 18.667 -60.001 116.001 -72 120c-3.333 1.334 -7.334 1.334 -10.667 1.334c-17.333 0 -51.333 -8 -67.333 -14.666c-44 -20 -76 -104 -76 -150
c0 -44.667 18.001 -85.334 33.333 -126.666c53.333 -146 212 -304.667 358 -358c41.334 -15.334 82 -33.333 126.666 -33.333c46.001 0 130.001 32.001 150 76c6.666 16 14.666 50 14.666 67.333zM1024 758.857v-640c0 -106 -86 -192 -192 -192h-640
c-106 0 -192 86 -192 192v640c0 106 86 192 192 192h640c106 0 192 -86 192 -192z" />
    <glyph glyph-name="envelope" unicode="&#xe915;" 
d="M1024 581.714v-453.714c0 -50.286 -41.143 -91.429 -91.429 -91.429h-841.142c-50.286 0 -91.429 41.143 -91.429 91.429v453.714c17.143 -18.857 36.571 -35.429 57.714 -49.714c94.857 -64.571 190.857 -129.143 284 -197.143
c48 -35.429 107.429 -78.857 169.714 -78.857h1.143c62.286 0 121.714 43.429 169.714 78.857c93.143 67.429 189.143 132.571 284.571 197.143c20.571 14.286 40 30.857 57.143 49.714zM1024 749.714c0 -64 -47.429 -121.714 -97.714 -156.571
c-89.143 -61.714 -178.857 -123.429 -267.429 -185.714c-37.143 -25.714 -100 -78.286 -146.286 -78.286h-1.143c-46.286 0 -109.143 52.571 -146.286 78.286c-88.571 62.286 -178.286 124 -266.857 185.714c-40.571 27.429 -98.286 92 -98.286 144
c0 56 30.286 104 91.429 104h841.142c49.714 0 91.429 -41.143 91.429 -91.429h0.001z" />
    <glyph glyph-name="map-marker" unicode="&#xe916;" 
d="M682.666 609.524c0 94 -76.666 170.667 -170.667 170.667s-170.667 -76.666 -170.667 -170.667s76.666 -170.667 170.667 -170.667c94.001 0 170.667 76.666 170.667 170.667zM853.333 609.524c0 -40.667 -4.667 -82.667 -22 -119.334l-242.667 -516.001
c-14 -29.334 -44.667 -47.333 -76.666 -47.333s-62.666 18.001 -76 47.333l-243.333 516.001c-17.333 36.667 -22 78.667 -22 119.334c0 188.666 152.667 341.333 341.333 341.333s341.333 -152.667 341.333 -341.333z" />
    <glyph glyph-name="facebook-official" unicode="&#xe917;" 
d="M967.334 950.856c31.333 0 56.666 -25.333 56.666 -56.666v-910.666c0 -31.333 -25.333 -56.666 -56.666 -56.666h-260.667v396.667h132.666l20 154.666h-152.667v98.666c0 44.667 12 74.667 76.666 74.667l81.333 0.666v138c-14 2 -62.666 6 -118.666 6
c-118 0 -199.333 -72 -199.333 -204v-114h-133.334v-154.666h133.334v-396.667h-490c-31.333 0 -56.666 25.333 -56.666 56.666v910.666c0 31.333 25.333 56.666 56.666 56.666h910.666z" />
    <glyph glyph-name="instagram" unicode="&#xe918;" 
d="M682.653 438.857c0 93.992 -76.66 170.653 -170.653 170.653s-170.653 -76.66 -170.653 -170.653s76.66 -170.653 170.653 -170.653s170.653 76.66 170.653 170.653zM774.645 438.857c0 -145.321 -117.323 -262.645 -262.645 -262.645s-262.645 117.323 -262.645 262.645
c0 145.322 117.323 262.645 262.645 262.645s262.645 -117.323 262.645 -262.645zM846.639 712.168c0 -33.997 -27.332 -61.328 -61.328 -61.328s-61.328 27.332 -61.328 61.328s27.332 61.328 61.328 61.328s61.328 -27.332 61.328 -61.328zM512 858.823
c-74.661 0 -234.648 6 -301.975 -20.665c-23.331 -9.333 -40.663 -20.665 -58.662 -38.664s-29.331 -35.331 -38.664 -58.662c-26.664 -67.328 -20.665 -227.315 -20.665 -301.975s-6 -234.648 20.665 -301.975c9.333 -23.331 20.665 -40.663 38.664 -58.662
s35.331 -29.331 58.662 -38.664c67.328 -26.664 227.315 -20.665 301.975 -20.665s234.648 -6 301.975 20.665c23.331 9.333 40.663 20.665 58.662 38.664c17.999 17.999 29.331 35.331 38.664 58.662c26.664 67.328 20.665 227.315 20.665 301.975
c0 74.66 6 234.648 -20.665 301.975c-9.333 23.331 -20.665 40.663 -38.664 58.662s-35.331 29.331 -58.662 38.664c-67.328 26.664 -227.315 20.665 -301.975 20.665zM1023.96 438.857c0 -70.66 0.666 -140.655 -3.333 -211.316
c-4 -81.994 -22.665 -154.654 -82.66 -214.649s-132.656 -78.661 -214.649 -82.66c-70.66 -4 -140.655 -3.333 -211.316 -3.333s-140.655 -0.666 -211.316 3.333c-81.994 4 -154.654 22.665 -214.649 82.66c-59.995 59.995 -78.661 132.656 -82.66 214.649
c-4 70.66 -3.333 140.655 -3.333 211.316s-0.666 140.655 3.333 211.316c4 81.994 22.665 154.654 82.66 214.649c59.995 59.995 132.656 78.661 214.649 82.66c70.66 4 140.655 3.333 211.316 3.333s140.655 0.666 211.316 -3.333
c81.994 -4 154.654 -22.665 214.649 -82.66s78.661 -132.656 82.66 -214.649c4 -70.66 3.333 -140.655 3.333 -211.316z" />
    <glyph glyph-name="telegram" unicode="&#xe919;" 
d="M679.429 204.002l84 396.004c7.431 34.859 -12.571 48.569 -35.431 40l-493.714 -190.288c-33.714 -13.145 -33.141 -32.002 -5.713 -40.571l126.284 -39.427l293.146 184.574c13.717 9.143 26.289 4.002 16.001 -5.141l-237.146 -214.286l-9.143 -130.286
c13.145 0 18.857 5.713 25.716 12.571l61.714 59.429l128.002 -94.288c23.426 -13.145 40 -6.286 46.286 21.714zM1024 438.857c0 -282.858 -229.142 -512 -512 -512s-512 229.142 -512 512s229.142 512 512 512c282.858 0 512 -229.142 512 -512z" />
    <glyph glyph-name="group, users" unicode="&#xe91a;" 
d="M316.267 438.857c-55.467 -1.6 -105.599 -25.6 -141.333 -68.266h-71.466c-53.333 0 -103.466 25.6 -103.466 84.799c0 43.2 -1.6 188.265 66.133 188.265c11.2 0 66.667 -45.333 138.665 -45.333c24.533 0 48 4.266 70.933 12.267
c-1.6 -11.733 -2.667 -23.467 -2.667 -35.2c0 -48.533 15.466 -96.533 43.2 -136.533zM887.464 99.126c0 -86.399 -57.066 -138.132 -142.399 -138.132h-466.131c-85.333 0 -142.399 51.733 -142.399 138.132c0 120.533 28.267 305.598 184.532 305.598
c18.134 0 84.266 -74.133 190.932 -74.133c106.666 0 172.799 74.133 190.932 74.133c156.266 0 184.532 -185.066 184.532 -305.598zM341.334 780.188c0 -75.199 -61.333 -136.533 -136.533 -136.533s-136.533 61.333 -136.533 136.533s61.333 136.533 136.533 136.533
c75.2 0 136.533 -61.333 136.533 -136.533zM716.798 575.39c0 -113.066 -91.733 -204.799 -204.799 -204.799s-204.799 91.733 -204.799 204.799c0 113.066 91.733 204.799 204.799 204.799c113.066 0 204.799 -91.733 204.799 -204.799zM1024 455.39
c0 -59.2 -50.133 -84.799 -103.466 -84.799h-71.466c-35.733 42.666 -85.866 66.667 -141.333 68.266c27.733 40 43.2 88 43.2 136.533c0 11.733 -1.067 23.467 -2.667 35.2c22.933 -8 46.399 -12.267 70.933 -12.267c72 0 127.465 45.333 138.665 45.333
c67.732 0 66.133 -145.066 66.133 -188.265zM955.73 780.188c0 -75.199 -61.333 -136.533 -136.533 -136.533s-136.533 61.333 -136.533 136.533s61.333 136.533 136.533 136.533s136.533 -61.333 136.533 -136.533z" />
    <glyph glyph-name="user" unicode="&#xe91b;" 
d="M938.665 103.524c0 -97.334 -64 -176.667 -141.999 -176.667h-569.332c-78 0 -141.999 79.333 -141.999 176.667c0 175.333 43.333 377.999 217.999 377.999c54 -52.667 127.333 -85.333 208.666 -85.333s154.666 32.667 208.666 85.333
c174.666 0 217.999 -202.666 217.999 -377.999zM767.999 694.857c0 -141.333 -114.667 -256 -256 -256s-256 114.667 -256 256s114.667 256 256 256s256 -114.667 256 -256z" />
    <glyph glyph-name="plus" unicode="&#xea0a;" 
d="M902 542.857h-286v286c0 14.358 -11.642 26 -26 26h-156c-14.359 0 -26 -11.642 -26 -26v-286h-286c-14.358 0 -26 -11.641 -26 -26v-156c0 -14.358 11.642 -26 26 -26h286v-286c0 -14.359 11.641 -26 26 -26h156c14.358 0 26 11.641 26 26v286h286
c14.359 0 26 11.642 26 26v156c0 14.359 -11.641 26 -26 26z" />
    <glyph glyph-name="minus" unicode="&#xea0b;" 
d="M109.714 514.286v-150.857c0 -13.885 11.258 -25.143 25.143 -25.143h754.286c13.885 0 25.143 11.258 25.143 25.143v150.857c0 13.885 -11.258 25.143 -25.143 25.143h-754.286c-13.885 0 -25.143 -11.258 -25.143 -25.143z" />
  </font>
</defs>
</svg>
