<?xml version="1.0" encoding="UTF-8"?>
<svg width="40px" height="40px" viewBox="0 0 40 40" version="1.1" xmlns="http://www.w3.org/2000/svg" xmlns:xlink="http://www.w3.org/1999/xlink">
    <title>Snapp! Pay Logotype Icons / White BG Color / Flat / 40x40</title>
    <defs>
        <polygon id="path-1" points="0 0 5.19927182 0 5.19927182 7.47265598 0 7.47265598"></polygon>
    </defs>
    <g id="V-4" stroke="none" stroke-width="1" fill="none" fill-rule="evenodd">
        <g id="Snapp!-Pay-Logotype-Icons-/-White-BG-Color-/-Flat-/-40x40">
            <rect id="Rectangle" fill="#FFFFFF" x="0" y="0" width="40" height="40"></rect>
            <g id="Group-4-Copy-3" transform="translate(3.883495, 10.485437)">
                <g id="Group-2">
                    <g id="Group-3">
                        <mask id="mask-2" fill="white">
                            <use xlink:href="#path-1"></use>
                        </mask>
                        <g id="Clip-2"></g>
                        <path d="M4.47081227,6.80432299 C5.03126417,6.32430323 5.19927182,5.59969107 5.19927182,4.89398184 C5.19927182,3.74562909 4.44281099,3.24699282 3.46191356,2.9551431 L2.99484662,2.81408717 C2.67730933,2.71040749 2.18224111,2.55044864 2.18224111,2.13644592 C2.18224111,1.74105972 2.63054578,1.54358143 2.96684535,1.54358143 C3.13286306,1.54358143 3.29632227,1.56921494 3.45324312,1.61604264 C3.92130503,1.75552332 4.42149023,1.54214939 4.64422118,1.10494762 L4.90461881,0.593852602 C4.90760372,0.588124443 4.90532951,0.580964243 4.89978611,0.577813756 C4.27466121,0.223527099 3.41131228,-1.43203985e-05 2.70516846,-1.43203985e-05 C1.29472864,-1.43203985e-05 0.276448799,0.941122264 0.276448799,2.38118153 C0.276448799,3.75508055 1.0331939,4.05638174 2.18224111,4.3856077 C2.57454323,4.49859564 3.29376378,4.67745742 3.29376378,5.19513982 C3.29376378,5.69377609 2.83607798,5.91030051 2.40625131,5.91030051 C1.78041572,5.91030051 1.23872609,5.58093135 0.78104029,5.1763801 L0.00141090163,6.6536724 C-0.00143186734,6.65911415 0.000131655592,6.66584474 0.00510650128,6.66942484 C0.722621388,7.17378927 1.58796026,7.47265598 2.47177713,7.47265598 C3.18161654,7.47265598 3.91959937,7.27489128 4.47081227,6.80432299" id="Fill-1" fill="#008EFA" mask="url(#mask-2)"></path>
                    </g>
                    <path d="M7.22639351,6.26463013 L7.22639351,4.78103686 C7.22639351,4.1785777 7.42268671,3.6610385 8.11390598,3.6610385 C8.9546549,3.6610385 8.87989008,4.47028421 8.87989008,4.93154424 L8.87989008,7.27207016 C8.87989008,7.27894395 8.88529134,7.2843857 8.89197185,7.2843857 L9.56784017,7.2843857 C10.1267285,7.2843857 10.5798659,6.8278514 10.5798659,6.26463013 L10.5798659,4.3010171 C10.5798659,3.11514491 10.0661776,2.29630453 8.77726612,2.29630453 C8.11603806,2.29630453 7.64044281,2.4929236 7.24885139,3.07218371 C7.24657717,3.07547741 7.24288157,3.07748226 7.23875956,3.07748226 L7.23861742,3.07748226 C7.23193691,3.07748226 7.22639351,3.07218371 7.22639351,3.06530992 L7.22639351,2.46843572 C7.22639351,2.46184833 7.22099225,2.45626338 7.21431174,2.45626338 L5.53849944,2.45626338 C5.53167679,2.45626338 5.52641767,2.46184833 5.52641767,2.46843572 L5.52641767,7.27207016 C5.52641767,7.27894395 5.53167679,7.2843857 5.53849944,7.2843857 L6.21436776,7.2843857 C6.77339828,7.2843857 7.22639351,6.8278514 7.22639351,6.26463013" id="Fill-4" fill="#008EFA"></path>
                    <path d="M12.6587971,4.87497867 C12.6587971,4.28225738 13.0604803,3.7833347 13.7516996,3.7833347 C14.443061,3.7833347 14.8447443,4.28225738 14.8447443,4.87497867 C14.8447443,5.48674609 14.443061,5.95731438 13.7516996,5.95731438 C13.0604803,5.95731438 12.6587971,5.48674609 12.6587971,4.87497867 M14.766426,6.75352853 C14.7685581,6.75009164 14.7723958,6.74794358 14.7765178,6.74794358 C14.7831983,6.74794358 14.7885996,6.75338533 14.7885996,6.76011592 L14.7885996,7.27207016 C14.7885996,7.27894395 14.794143,7.2843857 14.8006814,7.2843857 L15.4765497,7.2843857 C16.0355802,7.2843857 16.4887176,6.8278514 16.4887176,6.26463013 L16.4887176,2.46843572 C16.4887176,2.46184833 16.4834584,2.45626338 16.4766358,2.45626338 L14.8006814,2.45626338 C14.794143,2.45626338 14.7885996,2.46184833 14.7885996,2.46843572 L14.7885996,2.89418116 C14.7885996,2.90549428 14.7748122,2.91064962 14.767421,2.90220058 C14.4107956,2.49535807 13.8436632,2.29630453 13.3032528,2.29630453 C11.8834318,2.29630453 10.9026766,3.48217672 10.9026766,4.86567041 C10.9026766,6.2491641 11.9021941,7.44434455 13.3221572,7.44434455 C13.8803349,7.44434455 14.4665139,7.22953858 14.766426,6.75352853" id="Fill-6" fill="#008EFA"></path>
                    <path d="M19.7457348,5.95738598 C19.0543734,5.95738598 18.6526902,5.48667449 18.6526902,4.87505027 C18.6526902,4.28218578 19.0543734,3.7834063 19.7457348,3.7834063 C20.4369541,3.7834063 20.8386374,4.28218578 20.8386374,4.87505027 C20.8386374,5.48667449 20.4369541,5.95738598 19.7457348,5.95738598 M20.1754194,2.29637613 C19.6170995,2.29637613 19.0400174,2.52049036 18.7311506,2.99678682 C18.7288764,3.00008051 18.7248965,3.00222857 18.7210588,3.00222857 L18.7209166,3.00222857 C18.7142361,3.00222857 18.7088348,2.99678682 18.7088348,2.99005623 L18.7088348,2.45633498 L17.008859,2.45633498 L17.008859,9.32038835 L17.696667,9.32038835 C18.2556975,9.32038835 18.7088348,8.86385405 18.7088348,8.30077598 L18.7088348,6.82735019 C18.7088348,6.82591815 18.7105405,6.82520213 18.7115355,6.82649096 C19.0758363,7.24765388 19.644248,7.44427295 20.1941816,7.44427295 C21.6140026,7.44427295 22.5947579,6.27730369 22.5947579,4.88450174 C22.5947579,3.50100804 21.6046215,2.29637613 20.1754194,2.29637613" id="Fill-8" fill="#008EFA"></path>
                    <path d="M25.6493416,5.95738598 C24.9579802,5.95738598 24.556439,5.48667449 24.556439,4.87505027 C24.556439,4.28218578 24.9579802,3.7834063 25.6493416,3.7834063 C26.3405608,3.7834063 26.7423862,4.28218578 26.7423862,4.87505027 C26.7423862,5.48667449 26.3405608,5.95738598 25.6493416,5.95738598 M26.0790261,2.29637613 C25.5207063,2.29637613 24.9437663,2.52049036 24.6347573,2.99678682 C24.6324831,3.00008051 24.6287875,3.00222857 24.6246655,3.00222857 L24.6245234,3.00222857 C24.6178428,3.00222857 24.6124416,2.99678682 24.6124416,2.99005623 L24.6124416,2.46850732 C24.6124416,2.46191993 24.6070403,2.45633498 24.6003598,2.45633498 L22.9245475,2.45633498 C22.9177249,2.45633498 22.9124657,2.46191993 22.9124657,2.46850732 L22.9124657,9.30821601 C22.9124657,9.3149466 22.9177249,9.32038835 22.9245475,9.32038835 L23.6002737,9.32038835 C24.1593042,9.32038835 24.6124416,8.86385405 24.6124416,8.30077598 L24.6124416,6.85527497 C24.6124416,6.84396185 24.626229,6.83894971 24.6334781,6.84739875 C24.9986317,7.25424127 25.5570937,7.44427295 26.0977884,7.44427295 C27.5176093,7.44427295 28.4983646,6.27730369 28.4983646,4.88450174 C28.4983646,3.50100804 27.5082282,2.29637613 26.0790261,2.29637613" id="Fill-10" fill="#008EFA"></path>
                    <path d="M30.4876917,0.18834188 L29.3355174,4.6461387 L30.2933884,4.6461387 C30.7569019,4.6461387 31.1617122,4.33023071 31.2775551,3.87799253 L32.2330097,0.18834188 L30.4876917,0.18834188 Z" id="Fill-12" fill="#008EFA"></path>
                    <path d="M29.910368,5.27663721 C29.3166557,5.27663721 28.8346642,5.76224192 28.8346642,6.36026175 C28.8346642,6.95828159 29.3166557,7.44402951 29.910368,7.44402951 C30.5039381,7.44402951 30.9859296,6.95828159 30.9859296,6.36026175 C30.9859296,5.76224192 30.5039381,5.27663721 29.910368,5.27663721" id="Fill-14" fill="#008EFA"></path>
                    <polygon id="Fill-16" fill="#008EFA" points="29.3824231 0.277944613 29.3846973 0.277944613 29.5181653 0.65270944 29.5772949 0.65270944 29.7109051 0.277944613 29.7133214 0.277944613 29.7133214 0.65270944 29.8136712 0.65270944 29.8136712 0.188298919 29.6516333 0.188298919 29.5478723 0.463107364 29.4441112 0.188298919 29.2819312 0.188298919 29.2819312 0.65270944 29.3824231 0.65270944"></polygon>
                    <polygon id="Fill-18" fill="#008EFA" points="28.9751112 0.652680799 29.0856949 0.652680799 29.0856949 0.277915972 29.2259856 0.277915972 29.2259856 0.188270278 28.8346784 0.188270278 28.8346784 0.277915972 28.9751112 0.277915972"></polygon>
                </g>
                <g id="Group" transform="translate(0.000000, 9.708738)" fill="#008EFA">
                    <path d="M2.44798789,3.32599931 L1.83819721,3.32599931 L1.83819721,1.51887302 L2.44798789,1.51887302 C3.12325563,1.51887302 3.46074716,1.82010936 3.46074716,2.42243616 C3.46074716,3.02490885 3.12325563,3.32599931 2.44798789,3.32599931 M2.92639744,0 L0,0 L0,7.24790683 L1.83819721,7.24790683 L1.83819721,4.84472645 L2.92639744,4.84472645 C3.72023558,4.84472645 4.32860285,4.63335044 4.75064519,4.21030667 C5.17268752,3.78740878 5.38377986,3.19135469 5.38377986,2.42243616 C5.38377986,1.65337176 5.17268752,1.05746355 4.75064519,0.634419781 C4.32860285,0.211521886 3.72023558,0 2.92639744,0" id="Fill-20"></path>
                    <path d="M9.58112968,5.21961617 C9.52148862,5.35426079 9.44334318,5.47285893 9.34655101,5.57541057 C9.24961649,5.67796222 9.13389291,5.7579029 8.9995226,5.81552438 C8.86500995,5.87329174 8.72281087,5.90217542 8.57292534,5.90217542 C8.41634977,5.90217542 8.27101917,5.87329174 8.13664886,5.81552438 C8.00213621,5.7579029 7.88655497,5.67796222 7.78962046,5.57541057 C7.69268595,5.47285893 7.61610626,5.35265614 7.55973905,5.21480223 C7.50351419,5.07709418 7.47533058,4.9281536 7.47533058,4.7678346 C7.47533058,4.61408007 7.50351419,4.4714122 7.55973905,4.34012276 C7.61610626,4.20883331 7.69268595,4.09183983 7.78962046,3.98928818 C7.88655497,3.88688241 8.00213621,3.80664997 8.13664886,3.74888262 C8.27101917,3.69126114 8.41634977,3.66237746 8.57292534,3.66237746 C8.72281087,3.66237746 8.86500995,3.69126114 8.9995226,3.74888262 C9.13389291,3.80664997 9.24961649,3.88688241 9.34655101,3.98928818 C9.44334318,4.09183983 9.52148862,4.21189673 9.58112968,4.34975065 C9.64048606,4.48760457 9.67009307,4.63333586 9.67009307,4.78709038 C9.67009307,4.94084491 9.64048606,5.08511743 9.58112968,5.21961617 L9.58112968,5.21961617 Z M9.61386821,2.80695378 C9.21986714,2.37763729 8.72281087,2.1629061 8.1226994,2.1629061 C7.76627646,2.1629061 7.44088396,2.23176012 7.14709125,2.36946817 C6.8531562,2.50746796 6.5999308,2.69492012 6.38741504,2.93197051 C6.17461461,3.1690209 6.00892918,3.44604163 5.89021643,3.76332446 C5.77136134,4.08046141 5.71200496,4.41539537 5.71200496,4.7678346 C5.71200496,5.14609408 5.77306944,5.49532401 5.89477136,5.81552438 C6.0169003,6.13601651 6.18728299,6.41493364 6.40620411,6.65198403 C6.62484055,6.88903442 6.8813398,7.07327728 7.17527485,7.20456673 C7.46892522,7.33585617 7.79118621,7.40164677 8.14134613,7.40164677 C8.760389,7.40164677 9.25118225,7.16780568 9.61386821,6.69983174 L9.61386821,7.24789224 L11.320969,7.24789224 L11.320969,2.31666063 L9.61386821,2.31666063 L9.61386821,2.80695378 Z" id="Fill-22"></path>
                    <polygon id="Fill-24" points="15.0538729 4.84475563 13.7688145 2.31655852 11.7992362 2.31655852 14.1252375 6.57500465 12.4838984 9.70873786 14.3879997 9.70873786 18.2524272 2.31655852 16.3013532 2.31655852"></polygon>
                </g>
            </g>
        </g>
    </g>
</svg>