<svg width="32" height="32" viewBox="0 0 32 32" fill="none" xmlns="http://www.w3.org/2000/svg">
<path fill-rule="evenodd" clip-rule="evenodd" d="M8.18316 0.665933L8.84552 0.561349C13.5858 -0.187117 18.4142 -0.187117 23.1545 0.561349L23.8169 0.665933C27.6873 1.27706 30.7229 4.31272 31.3341 8.18316L31.4387 8.84552C32.1871 13.5858 32.1871 18.4142 31.4387 23.1545L31.3341 23.8169C30.7229 27.6873 27.6873 30.7229 23.8169 31.3341L23.1545 31.4387C18.4142 32.1871 13.5858 32.1871 8.84552 31.4387L8.18316 31.3341C4.31272 30.7229 1.27706 27.6873 0.665933 23.8169L0.561349 23.1545C-0.187117 18.4142 -0.187117 13.5858 0.561349 8.84552L0.665933 8.18316C1.27706 4.31272 4.31272 1.27706 8.18316 0.665933Z" fill="#008EFA"/>
<mask id="mask0_7_5328" style="mask-type:alpha" maskUnits="userSpaceOnUse" x="3" y="8" width="5" height="6">
<path d="M3 8H7.15942V13.9781H3V8Z" fill="white"/>
</mask>
<g mask="url(#mask0_7_5328)">
<path fill-rule="evenodd" clip-rule="evenodd" d="M6.57665 13.4435C7.02501 13.0595 7.15942 12.4798 7.15942 11.9152C7.15942 10.9965 6.55425 10.5976 5.76953 10.3641L5.39588 10.2513C5.14185 10.1683 4.74579 10.0404 4.74579 9.70917C4.74579 9.39286 5.10444 9.23488 5.37348 9.23488C5.50629 9.23488 5.63706 9.25538 5.76259 9.29285C6.13704 9.40443 6.53719 9.23373 6.71538 8.88397L6.9237 8.47509C6.92608 8.47051 6.92426 8.46478 6.91983 8.46226C6.41973 8.17883 5.72905 8 5.16413 8C4.03578 8 3.22116 8.75291 3.22116 9.90496C3.22116 11.0041 3.82656 11.2451 4.74579 11.5085C5.05963 11.5989 5.63501 11.742 5.63501 12.1561C5.63501 12.555 5.26886 12.7283 4.925 12.7283C4.42433 12.7283 3.99098 12.4648 3.62483 12.1411L3.00113 13.3229C2.99885 13.3273 3.00011 13.3327 3.00409 13.3356C3.5781 13.739 4.27037 13.9781 4.97742 13.9781C5.54529 13.9781 6.13568 13.8199 6.57665 13.4435Z" fill="white"/>
</g>
<path fill-rule="evenodd" clip-rule="evenodd" d="M8.78112 13.0117V11.8248C8.78112 11.3429 8.93815 10.9288 9.49113 10.9288C10.1637 10.9288 10.1039 11.5762 10.1039 11.9452V13.8176C10.1039 13.8231 10.1082 13.8275 10.1136 13.8275H10.6543C11.1014 13.8275 11.4639 13.4623 11.4639 13.0117V11.4408C11.4639 10.4921 11.0529 9.83704 10.0218 9.83704C9.49283 9.83704 9.11236 9.99433 8.79908 10.4577C8.79726 10.4604 8.79431 10.462 8.79101 10.462H8.79089C8.78555 10.462 8.78112 10.4577 8.78112 10.4522V9.97474C8.78112 9.96947 8.77679 9.965 8.77145 9.965H7.4308C7.42534 9.965 7.42113 9.96947 7.42113 9.97474V13.8176C7.42113 13.8231 7.42534 13.8275 7.4308 13.8275H7.9715C8.41872 13.8275 8.78112 13.4623 8.78112 13.0117Z" fill="white"/>
<path fill-rule="evenodd" clip-rule="evenodd" d="M13.127 11.9C13.127 11.4258 13.4484 11.0267 14.0014 11.0267C14.5544 11.0267 14.8758 11.4258 14.8758 11.9C14.8758 12.3894 14.5544 12.7658 14.0014 12.7658C13.4484 12.7658 13.127 12.3894 13.127 11.9ZM14.8131 13.4028C14.8148 13.4001 14.8179 13.3983 14.8212 13.3983C14.8266 13.3983 14.8309 13.4027 14.8309 13.4081V13.8176C14.8309 13.8231 14.8353 13.8275 14.8405 13.8275H15.3812C15.8285 13.8275 16.191 13.4623 16.191 13.0117V9.97474C16.191 9.96947 16.1868 9.965 16.1813 9.965H14.8405C14.8353 9.965 14.8309 9.96947 14.8309 9.97474V10.3153C14.8309 10.3244 14.8198 10.3285 14.8139 10.3218C14.5286 9.99628 14.0749 9.83704 13.6426 9.83704C12.5067 9.83704 11.7221 10.7857 11.7221 11.8925C11.7221 12.9993 12.5218 13.9555 13.6577 13.9555C14.1043 13.9555 14.5732 13.7836 14.8131 13.4028Z" fill="white"/>
<path fill-rule="evenodd" clip-rule="evenodd" d="M18.7966 12.766C18.2435 12.766 17.9222 12.3894 17.9222 11.9001C17.9222 11.4258 18.2435 11.0268 18.7966 11.0268C19.3496 11.0268 19.6709 11.4258 19.6709 11.9001C19.6709 12.3894 19.3496 12.766 18.7966 12.766ZM19.1403 9.83716C18.6937 9.83716 18.232 10.0164 17.9849 10.3975C17.9831 10.4001 17.9799 10.4018 17.9768 10.4018H17.9767C17.9714 10.4018 17.9671 10.3975 17.9671 10.3921V9.96513H16.6071V15.4564H17.1573C17.6046 15.4564 17.9671 15.0911 17.9671 14.6407V13.4619C17.9671 13.4608 17.9684 13.4602 17.9692 13.4612C18.2607 13.7982 18.7154 13.9555 19.1553 13.9555C20.2912 13.9555 21.0758 13.0219 21.0758 11.9077C21.0758 10.8009 20.2837 9.83716 19.1403 9.83716Z" fill="white"/>
<path fill-rule="evenodd" clip-rule="evenodd" d="M23.5195 12.766C22.9664 12.766 22.6451 12.3894 22.6451 11.9001C22.6451 11.4258 22.9664 11.0268 23.5195 11.0268C24.0724 11.0268 24.3939 11.4258 24.3939 11.9001C24.3939 12.3894 24.0724 12.766 23.5195 12.766ZM23.8632 9.83716C23.4166 9.83716 22.955 10.0164 22.7078 10.3975C22.706 10.4001 22.703 10.4018 22.6997 10.4018H22.6996C22.6943 10.4018 22.69 10.3975 22.69 10.3921V9.97486C22.69 9.96959 22.6856 9.96513 22.6803 9.96513H21.3396C21.3342 9.96513 21.33 9.96959 21.33 9.97486V15.4466C21.33 15.452 21.3342 15.4564 21.3396 15.4564H21.8802C22.3274 15.4564 22.69 15.0911 22.69 14.6407V13.4843C22.69 13.4752 22.701 13.4712 22.7068 13.478C22.9989 13.8035 23.4457 13.9555 23.8782 13.9555C25.0141 13.9555 25.7987 13.0219 25.7987 11.9077C25.7987 10.8009 25.0066 9.83716 23.8632 9.83716Z" fill="white"/>
<path fill-rule="evenodd" clip-rule="evenodd" d="M27.3902 8.15063L26.4684 11.7169H27.2347C27.6055 11.7169 27.9294 11.4641 28.022 11.1024L28.7864 8.15063H27.3902Z" fill="white"/>
<path fill-rule="evenodd" clip-rule="evenodd" d="M26.9283 12.2213C26.4533 12.2213 26.0677 12.6098 26.0677 13.0882C26.0677 13.5666 26.4533 13.9552 26.9283 13.9552C27.4032 13.9552 27.7887 13.5666 27.7887 13.0882C27.7887 12.6098 27.4032 12.2213 26.9283 12.2213Z" fill="white"/>
<path fill-rule="evenodd" clip-rule="evenodd" d="M26.5059 8.22235H26.5077L26.6145 8.52216H26.6618L26.7687 8.22235H26.7706V8.52216H26.8509V8.15063H26.7213L26.6383 8.37048L26.5553 8.15063H26.4255V8.52216H26.5059V8.22235Z" fill="white"/>
<path fill-rule="evenodd" clip-rule="evenodd" d="M26.1801 8.52216H26.2686V8.22235H26.3808V8.15063H26.0677V8.22235H26.1801V8.52216Z" fill="white"/>
<path fill-rule="evenodd" clip-rule="evenodd" d="M4.95839 18.4278H4.47056V16.9821H4.95839C5.4986 16.9821 5.7686 17.2231 5.7686 17.7049C5.7686 18.1869 5.4986 18.4278 4.95839 18.4278ZM5.34112 15.767H3V21.5653H4.47056V19.6427H5.34112C5.97619 19.6427 6.46288 19.4736 6.80052 19.1352C7.13815 18.7969 7.30702 18.3201 7.30702 17.7049C7.30702 17.0897 7.13815 16.6129 6.80052 16.2745C6.46288 15.9362 5.97619 15.767 5.34112 15.767Z" fill="white"/>
<path fill-rule="evenodd" clip-rule="evenodd" d="M10.6649 19.9427C10.6172 20.0504 10.5547 20.1453 10.4772 20.2273C10.3997 20.3094 10.3071 20.3733 10.1996 20.4194C10.092 20.4656 9.97825 20.4887 9.85834 20.4887C9.73308 20.4887 9.61681 20.4656 9.50932 20.4194C9.40171 20.3733 9.30924 20.3094 9.2317 20.2273C9.15415 20.1453 9.09288 20.0491 9.04779 19.9388C9.00281 19.8287 8.98026 19.7095 8.98026 19.5813C8.98026 19.4583 9.00281 19.3441 9.04779 19.2391C9.09288 19.1341 9.15415 19.0405 9.2317 18.9584C9.30924 18.8765 9.40171 18.8123 9.50932 18.7661C9.61681 18.72 9.73308 18.6969 9.85834 18.6969C9.97825 18.6969 10.092 18.72 10.1996 18.7661C10.3071 18.8123 10.3997 18.8765 10.4772 18.9584C10.5547 19.0405 10.6172 19.1365 10.6649 19.2468C10.7124 19.3571 10.7361 19.4737 10.7361 19.5967C10.7361 19.7197 10.7124 19.8351 10.6649 19.9427ZM10.6911 18.0126C10.3759 17.6691 9.97825 17.4973 9.49816 17.4973C9.21302 17.4973 8.95271 17.5524 8.71767 17.6626C8.48252 17.773 8.27994 17.9229 8.10993 18.1126C7.93969 18.3022 7.80714 18.5238 7.71217 18.7776C7.61709 19.0314 7.5696 19.2993 7.5696 19.5813C7.5696 19.8839 7.61845 20.1632 7.71582 20.4194C7.81352 20.6758 7.94983 20.8989 8.12496 21.0886C8.29987 21.2782 8.50507 21.4256 8.74022 21.5306C8.97514 21.6357 9.23295 21.6883 9.51308 21.6883C10.0083 21.6883 10.4009 21.5012 10.6911 21.1269V21.5653H12.0568V17.6203H10.6911V18.0126Z" fill="white"/>
<path fill-rule="evenodd" clip-rule="evenodd" d="M15.0431 19.6428L14.0151 17.6202H12.4394L14.3002 21.027L12.9871 23.534H14.5104L17.6019 17.6202H16.0411L15.0431 19.6428Z" fill="white"/>
</svg>
