<svg width="40" height="40" viewBox="0 0 40 40" fill="none" xmlns="http://www.w3.org/2000/svg">
<path fill-rule="evenodd" clip-rule="evenodd" d="M10.229 0.832416L11.0569 0.701687C16.9822 -0.233896 23.0177 -0.233896 28.9431 0.701687L29.7711 0.832416C34.6091 1.59632 38.4037 5.3909 39.1676 10.229L39.2983 11.0569C40.2339 16.9822 40.2339 23.0177 39.2983 28.9431L39.1676 29.7711C38.4037 34.6091 34.6091 38.4037 29.7711 39.1676L28.9431 39.2983C23.0177 40.2339 16.9822 40.2339 11.0569 39.2983L10.229 39.1676C5.3909 38.4037 1.59632 34.6091 0.832416 29.7711L0.701687 28.9431C-0.233896 23.0177 -0.233896 16.9822 0.701687 11.0569L0.832416 10.229C1.59632 5.3909 5.3909 1.59632 10.229 0.832416Z" fill="#008EFA"/>
<mask id="mask0_7_5348" style="mask-type:alpha" maskUnits="userSpaceOnUse" x="3" y="10" width="7" height="8">
<path d="M3.88349 10.4855H9.08276V17.9581H3.88349V10.4855Z" fill="white"/>
</mask>
<g mask="url(#mask0_7_5348)">
<path fill-rule="evenodd" clip-rule="evenodd" d="M8.3543 17.2898C8.91476 16.8098 9.08276 16.0852 9.08276 15.3795C9.08276 14.2311 8.3263 13.7325 7.34541 13.4406L6.87834 13.2996C6.5608 13.1959 6.06573 13.0359 6.06573 12.6219C6.06573 12.2265 6.51404 12.0291 6.85034 12.0291C7.01635 12.0291 7.17981 12.0547 7.33673 12.1015C7.8048 12.241 8.30498 12.0276 8.52771 11.5904L8.78811 11.0793C8.7911 11.0736 8.78882 11.0665 8.78328 11.0633C8.15815 10.709 7.2948 10.4855 6.58866 10.4855C5.17822 10.4855 4.15994 11.4266 4.15994 12.8667C4.15994 14.2406 4.91669 14.5419 6.06573 14.8711C6.45803 14.9841 7.17726 15.1629 7.17726 15.6806C7.17726 16.1793 6.71957 16.3958 6.28974 16.3958C5.66391 16.3958 5.12222 16.0664 4.66453 15.6619L3.8849 17.1392C3.88206 17.1446 3.88362 17.1513 3.8886 17.1549C4.60611 17.6593 5.47145 17.9581 6.35527 17.9581C7.06511 17.9581 7.80309 17.7604 8.3543 17.2898Z" fill="white"/>
</g>
<path fill-rule="evenodd" clip-rule="evenodd" d="M11.1099 16.7501V15.2665C11.1099 14.664 11.3062 14.1465 11.9974 14.1465C12.8381 14.1465 12.7634 14.9557 12.7634 15.417V17.7575C12.7634 17.7644 12.7688 17.7698 12.7755 17.7698H13.4513C14.0102 17.7698 14.4634 17.3133 14.4634 16.7501V14.7865C14.4634 13.6006 13.9497 12.7817 12.6608 12.7817C11.9995 12.7817 11.5239 12.9784 11.1323 13.5576C11.1301 13.5609 11.1264 13.5629 11.1223 13.5629H11.1221C11.1154 13.5629 11.1099 13.5576 11.1099 13.5507V12.9539C11.1099 12.9473 11.1045 12.9417 11.0978 12.9417H9.42199C9.41517 12.9417 9.40991 12.9473 9.40991 12.9539V17.7575C9.40991 17.7644 9.41517 17.7698 9.42199 17.7698H10.0979C10.6569 17.7698 11.1099 17.3133 11.1099 16.7501Z" fill="white"/>
<path fill-rule="evenodd" clip-rule="evenodd" d="M16.5423 15.3604C16.5423 14.7677 16.944 14.2688 17.6352 14.2688C18.3266 14.2688 18.7282 14.7677 18.7282 15.3604C18.7282 15.9722 18.3266 16.4427 17.6352 16.4427C16.944 16.4427 16.5423 15.9722 16.5423 15.3604ZM18.6499 17.239C18.6521 17.2355 18.6559 17.2334 18.66 17.2334C18.6667 17.2334 18.6721 17.2388 18.6721 17.2456V17.7575C18.6721 17.7644 18.6776 17.7698 18.6842 17.7698H19.36C19.9191 17.7698 20.3722 17.3133 20.3722 16.7501V12.9539C20.3722 12.9473 20.367 12.9417 20.3601 12.9417H18.6842C18.6776 12.9417 18.6721 12.9473 18.6721 12.9539V13.3796C18.6721 13.3909 18.6583 13.3961 18.6509 13.3876C18.2943 12.9808 17.7272 12.7817 17.1867 12.7817C15.7669 12.7817 14.7862 13.9676 14.7862 15.3511C14.7862 16.7346 15.7857 17.9298 17.2057 17.9298C17.7638 17.9298 18.35 17.715 18.6499 17.239Z" fill="white"/>
<path fill-rule="evenodd" clip-rule="evenodd" d="M23.6292 16.4429C22.9379 16.4429 22.5362 15.9722 22.5362 15.3605C22.5362 14.7677 22.9379 14.2689 23.6292 14.2689C24.3204 14.2689 24.7221 14.7677 24.7221 15.3605C24.7221 15.9722 24.3204 16.4429 23.6292 16.4429ZM24.0589 12.7819C23.5006 12.7819 22.9235 13.006 22.6146 13.4823C22.6124 13.4856 22.6084 13.4877 22.6045 13.4877H22.6044C22.5977 13.4877 22.5923 13.4823 22.5923 13.4755V12.9418H20.8923V19.8059H21.5802C22.1392 19.8059 22.5923 19.3493 22.5923 18.7863V17.3128C22.5923 17.3114 22.594 17.3107 22.595 17.312C22.9593 17.7331 23.5277 17.9298 24.0777 17.9298C25.4975 17.9298 26.4782 16.7628 26.4782 15.37C26.4782 13.9865 25.4881 12.7819 24.0589 12.7819Z" fill="white"/>
<path fill-rule="evenodd" clip-rule="evenodd" d="M29.5328 16.4429C28.8415 16.4429 28.4399 15.9722 28.4399 15.3605C28.4399 14.7677 28.8415 14.2689 29.5328 14.2689C30.2241 14.2689 30.6259 14.7677 30.6259 15.3605C30.6259 15.9722 30.2241 16.4429 29.5328 16.4429ZM29.9625 12.7819C29.4042 12.7819 28.8273 13.006 28.5183 13.4823C28.516 13.4856 28.5123 13.4877 28.5082 13.4877H28.508C28.5013 13.4877 28.4959 13.4823 28.4959 13.4755V12.954C28.4959 12.9474 28.4905 12.9418 28.4839 12.9418H26.808C26.8012 12.9418 26.796 12.9474 26.796 12.954V19.7937C26.796 19.8004 26.8012 19.8059 26.808 19.8059H27.4838C28.0428 19.8059 28.4959 19.3493 28.4959 18.7863V17.3408C28.4959 17.3294 28.5097 17.3244 28.517 17.3329C28.8821 17.7397 29.4406 17.9298 29.9813 17.9298C31.4011 17.9298 32.3819 16.7628 32.3819 15.37C32.3819 13.9865 31.3917 12.7819 29.9625 12.7819Z" fill="white"/>
<path fill-rule="evenodd" clip-rule="evenodd" d="M34.3712 10.6738L33.219 15.1316H34.1769C34.6404 15.1316 35.0452 14.8157 35.161 14.3635L36.1165 10.6738H34.3712Z" fill="white"/>
<path fill-rule="evenodd" clip-rule="evenodd" d="M33.7939 15.7621C33.2001 15.7621 32.7182 16.2477 32.7182 16.8457C32.7182 17.4437 33.2001 17.9295 33.7939 17.9295C34.3874 17.9295 34.8694 17.4437 34.8694 16.8457C34.8694 16.2477 34.3874 15.7621 33.7939 15.7621Z" fill="white"/>
<path fill-rule="evenodd" clip-rule="evenodd" d="M33.2659 10.7635H33.2682L33.4017 11.1382H33.4608L33.5944 10.7635H33.5968V11.1382H33.6972V10.6738H33.5351L33.4314 10.9486L33.3276 10.6738H33.1654V11.1382H33.2659V10.7635Z" fill="white"/>
<path fill-rule="evenodd" clip-rule="evenodd" d="M32.8586 11.1381H32.9692V10.7634H33.1095V10.6737H32.7182V10.7634H32.8586V11.1381Z" fill="white"/>
<path fill-rule="evenodd" clip-rule="evenodd" d="M6.33148 23.5202H5.72169V21.7131H6.33148C7.00675 21.7131 7.34424 22.0143 7.34424 22.6167C7.34424 23.2191 7.00675 23.5202 6.33148 23.5202ZM6.80989 20.1942H3.88349V27.4421H5.72169V25.0389H6.80989C7.60373 25.0389 8.21209 24.8276 8.63414 24.4045C9.05618 23.9816 9.26727 23.3856 9.26727 22.6167C9.26727 21.8476 9.05618 21.2517 8.63414 20.8286C8.21209 20.4057 7.60373 20.1942 6.80989 20.1942Z" fill="white"/>
<path fill-rule="evenodd" clip-rule="evenodd" d="M13.4646 25.4139C13.405 25.5485 13.3268 25.6671 13.23 25.7697C13.1331 25.8722 13.0174 25.9522 12.883 26.0098C12.7485 26.0676 12.6063 26.0964 12.4564 26.0964C12.2998 26.0964 12.1545 26.0676 12.0201 26.0098C11.8856 25.9522 11.77 25.8722 11.6731 25.7697C11.5762 25.6671 11.4996 25.5469 11.4432 25.4091C11.387 25.2714 11.3588 25.1224 11.3588 24.9621C11.3588 24.8084 11.387 24.6657 11.4432 24.5344C11.4996 24.4031 11.5762 24.2861 11.6731 24.1836C11.77 24.0812 11.8856 24.0009 12.0201 23.9432C12.1545 23.8855 12.2998 23.8566 12.4564 23.8566C12.6063 23.8566 12.7485 23.8855 12.883 23.9432C13.0174 24.0009 13.1331 24.0812 13.23 24.1836C13.3268 24.2861 13.405 24.4062 13.4646 24.544C13.524 24.6819 13.5536 24.8276 13.5536 24.9814C13.5536 25.1351 13.524 25.2794 13.4646 25.4139ZM13.4974 23.0012C13.1034 22.5719 12.6063 22.3572 12.0062 22.3572C11.6498 22.3572 11.3244 22.426 11.0306 22.5637C10.7366 22.7017 10.4834 22.8892 10.2709 23.1262C10.0581 23.3633 9.89242 23.6403 9.77371 23.9576C9.65485 24.2747 9.5955 24.6097 9.5955 24.9621C9.5955 25.3404 9.65656 25.6896 9.77826 26.0098C9.90039 26.3303 10.0708 26.6092 10.2897 26.8463C10.5083 27.0833 10.7648 27.2675 11.0588 27.3988C11.3524 27.5301 11.6747 27.5959 12.0248 27.5959C12.6439 27.5959 13.1347 27.3621 13.4974 26.8941V27.4422H15.2045V22.5109H13.4974V23.0012Z" fill="white"/>
<path fill-rule="evenodd" clip-rule="evenodd" d="M18.9374 25.0389L17.6523 22.5107H15.6827L18.0087 26.7692L16.3674 29.9029H18.2715L22.1359 22.5107H20.1848L18.9374 25.0389Z" fill="white"/>
</svg>
